<?xml version="1.0" standalone="no"?><!DOCTYPE svg PUBLIC "-//W3C//DTD SVG 1.1//EN" "http://www.w3.org/Graphics/SVG/1.1/DTD/svg11.dtd"><svg t="1617337543802" class="icon" viewBox="0 0 1024 1024" version="1.1" xmlns="http://www.w3.org/2000/svg" p-id="5432" xmlns:xlink="http://www.w3.org/1999/xlink" width="200" height="200"><defs><style type="text/css"></style></defs><path d="M261.376 711.424H757.248V401.4848H261.376V711.424z m326.0672-237.1584c5.376-8.064 13.4912-8.064 21.5552-5.376l110.4896 67.3536c8.0896 5.376 8.0896 13.4912 5.376 21.5552a14.8224 14.8224 0 0 1-13.4656 8.0896c-2.688 0-5.376 0-8.064-2.688l-110.4896-67.3792c-8.0896-5.376-10.7776-13.4656-5.376-21.5552zM460.8 649.4208c16.1792 0 29.6448-16.1536 35.0208-35.0208 0-5.376 2.7136-8.0896 2.7136-13.4656 0-8.0896 5.376-13.4912 13.4656-16.1792 8.0896 0 13.4656 8.0896 13.4656 16.1792 0 2.688 0 8.064 2.7136 13.4656 5.376 16.1792 18.8416 37.7344 35.0208 37.7344 21.5552 0 37.7344-26.9568 37.7344-48.512 0-8.0896 8.064-16.1792 16.1536-16.1792s16.1792 8.0896 16.1792 16.1792c0 37.7344-24.2688 80.8448-67.3792 80.8448-21.5552 0-37.7088-13.4656-48.4864-29.6448-10.8032 16.1792-29.6448 29.6448-51.2 29.6448-40.448 0-67.3792-48.512-67.3792-80.8448 0-8.0896 8.0896-16.1792 16.1792-16.1792 8.064 0 16.1536 8.0896 16.1536 16.1792-5.376 16.1792 10.7776 45.824 29.6448 45.824z m-158.976-121.2416l99.6864-48.512c8.0896-2.688 16.1792 0 18.8672 8.0896 2.688 8.064 0 16.1536-8.0896 18.8416l-99.6864 48.512c-2.7136 0-5.4016 2.688-5.4016 2.688a14.8224 14.8224 0 0 1-13.4656-8.064c0-8.0896 2.688-16.1792 8.064-21.5552z m-29.6448 312.576c5.376 5.376 13.4656 8.0896 18.8416 8.0896 5.376 0 13.4912 0 21.5808-8.0896 2.688-5.376 8.064-13.4656 10.752-18.8672h-61.952c2.688 2.7136 5.376 13.4912 10.752 18.8672z m439.2192 0c5.4016 5.376 13.4912 8.0896 18.8672 8.0896 5.376 0 13.4912 0 21.5552-8.0896 2.7136-5.376 8.0896-13.4656 10.7776-18.8672h-61.952c2.688 2.7136 8.064 13.4912 10.752 18.8672z" fill="#2c2c2c" p-id="5433"></path><path d="M512 0C229.0432 0 0 229.0432 0 512s229.0432 512 512 512 512-229.0432 512-512S794.9568 0 512 0z m355.712 811.1104a20.5824 20.5824 0 0 1-13.4912 5.376h-59.264c-2.7136 13.4912-10.7776 32.3584-18.8672 40.448-10.7776 13.4656-29.6448 18.8672-43.1104 18.8672-13.4912 0-29.6448-5.4016-40.448-18.8672-8.064-8.0896-16.128-29.6448-18.8416-43.136H352.9984c-2.688 13.4912-10.752 32.3584-18.8416 40.448-10.7776 13.4656-29.6448 18.8416-43.136 18.8416-13.4656 0-29.6192-5.376-40.4224-18.8672-8.064-8.064-16.1536-29.6192-18.8416-43.1104H177.8432c-13.4656 0-26.9312-13.4656-26.9312-26.9312V320.6656c0-13.4656 13.4656-29.6448 26.9312-29.6448h247.936l-153.6-78.1312c-8.0896-5.376-13.4912-16.1792-8.0896-26.9568 5.376-10.752 16.1536-13.4656 26.9312-8.0896l212.8896 113.1776h43.1104l121.2672-172.4416c10.7776-10.7776 21.5552-10.7776 32.3328-5.376 10.7776 5.376 10.7776 18.8416 5.376 26.9312l-105.0624 150.8864h256c8.064 0 10.752 5.376 13.4656 8.0896 5.376 5.376 5.376 16.1792 5.376 21.5552v474.2912c-2.688 2.688-2.688 10.752-8.064 16.1536z" fill="#2c2c2c" p-id="5434"></path><path d="M576.6656 323.3792H177.8432v463.488h662.912V323.3792H576.6656z m215.5776 398.8224c0 5.376 5.376 10.752-2.688 18.8416a20.5824 20.5824 0 0 1-13.4656 5.376H253.312c-8.0896 0-26.9568-5.376-26.9568-24.2176V398.8224c0-16.1792 18.8672-24.2432 26.9568-24.2432H778.752c5.376 0 10.7776 2.688 13.4656 8.064 5.376 5.376 2.7136 13.4912 2.7136 18.8672l-2.7136 320.6912c-2.688-2.7136 0-2.7136 0 0z" fill="#2c2c2c" p-id="5435"></path></svg>