<?xml version="1.0" standalone="no"?><!DOCTYPE svg PUBLIC "-//W3C//DTD SVG 1.1//EN" "http://www.w3.org/Graphics/SVG/1.1/DTD/svg11.dtd"><svg t="1617339462391" class="icon" viewBox="0 0 1024 1024" version="1.1" xmlns="http://www.w3.org/2000/svg" p-id="7404" xmlns:xlink="http://www.w3.org/1999/xlink" width="200" height="200"><defs><style type="text/css"></style></defs><path d="M512 0C229.24 0 0.01 229.23 0.01 512S229.24 1024 512 1024c282.77 0 511.99-229.23 511.99-512S794.76 0 512 0z m248.38 315.41L503.8 528.9 247.22 315.41h513.16zM223.87 666.47V353.86c0-2.6 0.73-4.93 1.44-7.27l171.93 146.69-172.21 179.13c-0.46-1.95-1.16-3.82-1.16-5.94z m536.51 38.43H247.22c-1.98 0-3.8-0.7-5.65-1.21l180.07-193.44 74.7 57.95c2.16 1.9 4.82 2.82 7.47 2.82 2.66 0 5.31-0.91 7.45-2.82l65.9-57.95L766.1 703.69c-1.87 0.51-3.69 1.21-5.72 1.21z m23.33-38.43c0 2.09-0.66 3.97-1.14 5.92L600.05 493.27l182.24-146.66c0.73 2.33 1.42 4.7 1.42 7.25v312.61z" p-id="7405"></path></svg>